<svg width="512" height="512" fill="none" xmlns="http://www.w3.org/2000/svg"><path d="M110.933 320c-28.237 0-51.2 22.963-51.2 51.2 0 28.237 22.963 51.2 51.2 51.2 28.237 0 51.2-22.963 51.2-51.2 0-28.237-22.963-51.2-51.2-51.2zm0 85.333c-18.825 0-34.133-15.309-34.133-34.133 0-18.824 15.31-34.133 34.133-34.133 18.824 0 34.133 15.309 34.133 34.133 0 18.824-15.308 34.133-34.133 34.133zM396.919 320c-28.237 0-51.2 22.963-51.2 51.2 0 28.237 22.963 51.2 51.2 51.2 28.237 0 51.2-22.963 51.2-51.2.001-28.237-22.971-51.2-51.2-51.2zm0 85.333c-18.825 0-34.133-15.309-34.133-34.133 0-18.824 15.309-34.133 34.133-34.133 18.824 0 34.133 15.309 34.133 34.133 0 18.824-15.317 34.133-34.133 34.133z" fill="#9F41FF"/><path d="M503.467 294.4h-8.533V98.133a8.53 8.53 0 00-8.533-8.533H221.867c-18.825 0-34.133 15.309-34.133 34.133v179.2h-17.067v-128a8.53 8.53 0 00-8.533-8.533h-102.4a8.545 8.545 0 00-7.1 3.797l-51.2 76.8A8.575 8.575 0 000 251.733V345.6a8.53 8.53 0 008.533 8.533h25.6a8.54 8.54 0 008.047-5.692c9.617-27.213 35.49-45.508 64.384-45.508 17.937 0 39.518 6.519 50.202 15.164a8.513 8.513 0 005.367 1.903h25.6v25.6a8.53 8.53 0 008.533 8.533h128.222a8.54 8.54 0 008.047-5.692c9.617-27.213 35.49-45.508 64.384-45.508 28.732 0 54.485 18.099 64.23 45.082 1.041 3.533 4.309 6.118 8.183 6.118h34.133a8.53 8.53 0 008.533-8.533v-42.667a8.528 8.528 0 00-8.531-8.533zM64.299 183.467h55.168V243.2H24.474l39.825-59.733zM153.6 296.311c-15.147-7.125-33.527-10.445-47.036-10.445-34.057 0-64.759 20.344-78.234 51.2H17.067V294.4H25.6a8.53 8.53 0 008.533-8.533 8.53 8.53 0 00-8.533-8.533h-8.533v-17.067H128a8.53 8.53 0 008.533-8.533v-68.267H153.6v112.844zm341.333 40.756h-19.789c-13.474-30.857-44.177-51.2-78.225-51.2-34.057 0-64.759 20.344-78.234 51.2H204.8V123.733c0-9.412 7.654-17.067 17.067-17.067h256v153.6h-8.533a8.53 8.53 0 00-8.533 8.533 8.53 8.53 0 008.533 8.533h8.533v25.6a8.53 8.53 0 008.533 8.533h8.533v25.602z" fill="#9F41FF"/></svg>