<svg width="512" height="512" fill="none" xmlns="http://www.w3.org/2000/svg"><g clip-path="url(#clip0)"><path d="M435.199 251.733c-8.311 0-16.299 1.365-23.799 3.823l-8.098-17.826c7.484-1.929 15.283-3.063 23.364-3.063h34.133a8.53 8.53 0 008.533-8.533c0-63.642-51.84-119.467-110.933-119.467a8.545 8.545 0 00-7.014 3.669 8.538 8.538 0 00-.973 7.859l4.002 10.675-19.55-4.881c-4.582-1.178-9.199 1.638-10.342 6.212-1.152 4.574 1.63 9.207 6.212 10.351l30.959 7.74 7.492 19.985c-33.886-12.271-84.113-23.159-119.236-8.474-15.343 6.417-26.59 17.041-33.51 31.625l-71.373-7.151v-9.344a8.528 8.528 0 00-6.861-8.363l-85.333-17.067a8.558 8.558 0 00-8.457 3.191 8.54 8.54 0 00-.853 8.994l12.672 25.327-41.865 13.952a8.544 8.544 0 00-5.751 6.886L.085 267.586a8.538 8.538 0 005.265 9.122 8.532 8.532 0 0010.112-2.935c17.357-24.124 47.403-39.108 78.404-39.108 43.051 0 79.334 29.175 90.359 68.762l-16.819 3.055c-9.498-31.625-38.852-54.75-73.54-54.75-42.351 0-76.8 34.458-76.8 76.8s34.449 76.8 76.8 76.8 76.8-34.458 76.8-76.8c0-1.766-.145-3.499-.265-5.239l16.913-3.072c.239 2.739.418 5.504.418 8.311a8.53 8.53 0 008.533 8.533h128a8.53 8.53 0 008.533-8.533c0-37.641 22.323-70.084 54.374-85.035l8.721 19.183c-22.409 13.423-37.495 37.88-37.495 65.852 0 42.342 34.449 76.8 76.8 76.8s76.8-34.458 76.8-76.8-34.448-76.799-76.799-76.799zM93.865 388.266c-32.93 0-59.733-26.795-59.733-59.733 0-32.938 26.803-59.733 59.733-59.733 26.3 0 48.64 17.109 56.593 40.772l-58.12 10.564a8.533 8.533 0 001.519 16.93c.512 0 1.015-.043 1.536-.137l58.095-10.564c.026.725.111 1.434.111 2.167 0 32.939-26.804 59.734-59.734 59.734zm222.191-68.267H204.474c-4.378-57.199-52.309-102.4-110.61-102.4-26.768 0-52.965 9.574-73.104 25.975l4.01-28.083 46.2-15.403a8.551 8.551 0 005.18-4.83 8.524 8.524 0 00-.247-7.083l-9.267-18.526 61.363 12.279v10.069a8.536 8.536 0 007.68 8.491l85.333 8.533c3.849.418 7.526-1.903 8.866-5.555 4.873-13.329 13.602-22.46 26.658-27.921 36.847-15.428 97.186 3.516 123.921 15.693a8.517 8.517 0 009.361-1.527 8.528 8.528 0 002.167-9.233l-20.89-55.706c24.977 4.045 47.411 19.806 62.353 41.626h-6.784a8.53 8.53 0 00-8.533 8.533 8.53 8.53 0 008.533 8.533h16.375c4.745 10.641 7.868 22.153 8.866 34.133h-25.242c-58.297.002-106.229 45.203-110.607 102.402zm119.143 68.267c-32.93 0-59.733-26.795-59.733-59.733 0-21.077 11-39.595 27.529-50.227l24.439 53.76a8.527 8.527 0 0011.298 4.232A8.526 8.526 0 00442.965 325l-24.448-53.786c5.299-1.545 10.889-2.415 16.683-2.415 32.93 0 59.733 26.795 59.733 59.733 0 32.938-26.796 59.734-59.734 59.734z" fill="#9F41FF"/></g><defs><clipPath id="clip0"><path fill="#fff" d="M0 0h511.999v511.999H0z"/></clipPath></defs></svg>