<svg width="512" height="512" fill="none" xmlns="http://www.w3.org/2000/svg"><path d="M392.533 298.667c-23.526 0-42.667 19.14-42.667 42.667 0 23.526 19.14 42.667 42.667 42.667 23.526 0 42.667-19.14 42.667-42.667s-19.14-42.667-42.667-42.667zm0 68.266c-14.114 0-25.6-11.486-25.6-25.6s11.486-25.6 25.6-25.6 25.6 11.486 25.6 25.6-11.486 25.6-25.6 25.6z" fill="#9F41FF"/><path d="M509.5 292.634l-6.033-6.033V136.533a8.53 8.53 0 00-8.533-8.533h-384a8.521 8.521 0 00-6.989 3.644l-59.068 84.378c-17.391 14.43-33.562 33.135-36.139 70.374l-6.229 6.238A8.48 8.48 0 000 298.667v17.067c0 2.261.896 4.437 2.5 6.033l6.033 6.033v13.534a8.53 8.53 0 008.533 8.533H51.2a8.53 8.53 0 008.533-8.533c0-32.939 26.803-59.733 59.733-59.733 32.93 0 59.733 26.795 59.733 59.733a8.53 8.53 0 008.533 8.533h136.533a8.53 8.53 0 008.533-8.533c0-32.939 26.803-59.733 59.733-59.733 32.93 0 59.733 26.795 59.733 59.733a8.53 8.53 0 008.533 8.533h34.133a8.53 8.53 0 008.533-8.533V327.8l6.033-6.033a8.513 8.513 0 002.5-6.033v-17.067a8.489 8.489 0 00-2.496-6.033zM115.379 145.067h72.354v68.267H67.593l47.786-68.267zm379.554 167.134l-6.033 6.033a8.513 8.513 0 00-2.5 6.033v8.533h-17.545c-4.258-38.349-36.855-68.267-76.322-68.267-39.467 0-72.064 29.918-76.322 68.267H195.789c-4.258-38.349-36.855-68.267-76.322-68.267-39.467 0-72.064 29.918-76.322 68.267H25.6v-8.533a8.513 8.513 0 00-2.5-6.033l-6.033-6.033V302.2l6.033-6.033a8.527 8.527 0 002.492-5.641 107.704 107.704 0 012.21-17.459h14.865a8.53 8.53 0 008.533-8.533A8.531 8.531 0 0042.667 256h-9.165c4.958-10.18 11.989-18.099 20.787-25.6h141.978a8.53 8.53 0 008.533-8.533v-76.8h281.6V256h-8.533a8.53 8.53 0 00-8.533 8.533 8.53 8.53 0 008.533 8.533h8.533v17.067c0 2.261.896 4.437 2.5 6.033l6.033 6.033v10.002z" fill="#9F41FF"/><path d="M119.467 298.667c-23.526 0-42.667 19.14-42.667 42.667C76.8 364.86 95.94 384 119.467 384s42.667-19.14 42.667-42.667c-.001-23.526-19.141-42.666-42.667-42.666zm0 68.266c-14.114 0-25.6-11.486-25.6-25.6s11.486-25.6 25.6-25.6 25.6 11.486 25.6 25.6-11.486 25.6-25.6 25.6z" fill="#9F41FF"/></svg>