<svg width="575" height="575" fill="none" xmlns="http://www.w3.org/2000/svg"><g clip-path="url(#clip0)" fill="#9F41FF"><path d="M238.602 258.938h38.334v19.172h-38.334v-19.172z"/><path d="M565.817 230.284l-65.103-9.297a328.241 328.241 0 00-36.891-19.549A322.734 322.734 0 00330.3 172.685h-11.309a325.772 325.772 0 00-155.557 39.668l-32.855 17.923a226.46 226.46 0 00-109.59 29.708A43.754 43.754 0 00-1 297.87v56.909a9.583 9.583 0 009.586 9.586h32.18c10.467 29.86 43.159 45.584 73.019 35.117a57.284 57.284 0 0035.117-35.117H404.96c10.467 29.86 43.159 45.584 73.019 35.117a57.298 57.298 0 0035.117-35.117h3.44a9.61 9.61 0 003.564-.683l31.042-12.456a36.241 36.241 0 0022.899-33.822v-77.632a9.589 9.589 0 00-8.224-9.488zM132.4 352.864c-4.239 20.743-24.491 34.123-45.233 29.884-20.747-4.239-34.127-24.49-29.888-45.237 4.243-20.743 24.494-34.123 45.237-29.884 17.849 3.647 30.664 19.351 30.66 37.57 0 2.574-.261 5.144-.776 7.667zm173.289-7.667H152.343c0-31.759-25.742-57.505-57.502-57.505s-57.505 25.746-57.505 57.505H18.169V297.87a24.516 24.516 0 0112.334-21.246 207.211 207.211 0 01102.673-27.266h172.513v95.839zm0-115.007H170.765l1.849-1.01a306.447 306.447 0 01133.075-36.907v37.917zm19.167-38.338h5.424a303.33 303.33 0 01112.769 21.605l-16.734 16.733H324.856v-38.338zm171.736 161.012c-4.239 20.743-24.49 34.123-45.237 29.884-20.742-4.239-34.122-24.49-29.883-45.237 4.239-20.743 24.494-34.123 45.237-29.884 17.849 3.647 30.663 19.351 30.659 37.57 0 2.574-.261 5.144-.776 7.667zm58.282-93.925h-28.753v19.171h28.753v39.294a17.153 17.153 0 01-10.849 16.012l-27.489 11.041c0-.882-.113-1.755-.172-2.637-.058-.881-.078-1.914-.172-2.874-.097-.959-.288-1.918-.44-2.874-.156-.959-.269-1.919-.46-2.788-.192-.874-.472-1.841-.722-2.753-.249-.909-.441-1.829-.729-2.722-.285-.89-.632-1.744-.956-2.617-.327-.87-.624-1.771-.959-2.636-.335-.862-.788-1.646-1.189-2.461-.402-.815-.796-1.708-1.244-2.531-.453-.823-.96-1.525-1.393-2.289a29.791 29.791 0 00-1.501-2.426c-.55-.788-1.057-1.408-1.583-2.117-.527-.71-1.123-1.545-1.736-2.282-.612-.737-1.185-1.314-1.782-1.918-.593-.601-1.256-1.416-1.915-2.087-.663-.671-1.314-1.201-1.973-1.794-.663-.592-1.373-1.294-2.102-1.918-.725-.62-1.466-1.1-2.191-1.646-.73-.546-1.459-1.131-2.223-1.642-.769-.507-1.63-.955-2.453-1.493-.827-.539-1.498-.96-2.274-1.369-.776-.414-1.743-.846-2.624-1.268-.882-.421-1.572-.795-2.387-1.138-.815-.347-1.919-.71-2.874-1.053-.959-.347-1.583-.616-2.398-.874-1.092-.335-2.212-.577-3.327-.854-.729-.171-1.427-.402-2.164-.554-1.178-.241-2.387-.374-3.584-.55-.71-.093-1.388-.249-2.098-.315a58.46 58.46 0 00-5.846-.297c-31.748.031-57.474 25.758-57.505 57.506h-76.7v-95.832h105.421c2.543 0 4.98-1.01 6.774-2.808l24.853-24.853a307.242 307.242 0 0130.383 16.62 9.607 9.607 0 003.716 1.361l58.867 8.404v10.861z"/></g><defs><clipPath id="clip0"><path fill="#fff" d="M0 0h575v575H0z"/></clipPath></defs></svg>