<svg xmlns="http://www.w3.org/2000/svg" width="64" height="64"><path d="M59 57.068A6.933 6.933 0 0152.068 64H11.932A6.933 6.933 0 015 57.068V6.932A6.933 6.933 0 0111.932 0h40.136A6.933 6.933 0 0159 6.932v50.136zM55 6.932A2.932 2.932 0 0052.068 4H11.932A2.932 2.932 0 009 6.932v50.136A2.932 2.932 0 0011.932 60h40.136A2.931 2.931 0 0055 57.068V6.932z"/><path d="M19 63a1 1 0 01-1-1V2a1 1 0 112 0v60a1 1 0 01-1 1zM47.527 58H31.125a1 1 0 110-2h16.402C49.105 56 51 54.109 51 51.184V48a1 1 0 112 0v3.184C53 55.325 50.32 58 47.527 58zM51.245 43.951a.995.995 0 01-.71-.29 1.008 1.008 0 01-.29-.71c0-.262.108-.521.29-.71.369-.36 1.04-.37 1.408 0 .19.188.302.448.302.71 0 .27-.11.52-.29.71a1.01 1.01 0 01-.71.29zM45 22.432a.985.985 0 01-.432-.099L39 19.666l-5.568 2.668a1.005 1.005 0 01-1.439-.902V2c0-.553.454-1.318 1.007-1.318h12c.553 0 .993.766.993 1.318v19.432a.992.992 0 01-.993 1zm-6-4.875c.146 0 .292.033.43.099l4.563 2.188V2.682h-10v17.162l4.571-2.188c.136-.066.29-.099.436-.099z"/></svg>