<svg xmlns="http://www.w3.org/2000/svg" width="65.438" height="65.438"><path d="M32.342 64.806c-16.447 0-29.828-13.381-29.828-29.826 0-16.446 13.381-29.827 29.828-29.827 16.446 0 29.827 13.381 29.827 29.827S48.788 64.806 32.342 64.806zm0-55.653c-14.241 0-25.828 11.586-25.828 25.827 0 14.24 11.587 25.826 25.828 25.826S58.169 49.22 58.169 34.98c0-14.241-11.586-25.827-25.827-25.827z"/><path d="M21.756 54.691a.985.985 0 01-.492-.13C14.222 50.568 9.848 43.063 9.848 34.979a1 1 0 112 0c0 7.365 3.986 14.201 10.402 17.843a1 1 0 01-.494 1.869zM30.383 57.386c-.03 0-.06-.002-.091-.004-.433-.039-.86-.09-1.284-.154a1 1 0 01-.842-1.137c.082-.545.59-.916 1.137-.842.387.059.775.104 1.169.141a1 1 0 01-.089 1.996zM7.866 21.521c-.369 0-.743-.102-1.077-.315a11.468 11.468 0 01-5.306-9.696C1.483 5.163 6.647 0 12.994 0c4.637 0 8.799 2.759 10.604 7.027a2 2 0 11-3.684 1.558 7.502 7.502 0 00-6.921-4.586c-4.142 0-7.511 3.369-7.511 7.51a7.482 7.482 0 003.464 6.327 2.001 2.001 0 01-1.08 3.685zM57.574 21.521a2.002 2.002 0 01-1.083-3.685 7.482 7.482 0 003.464-6.327c0-4.141-3.369-7.51-7.511-7.51a7.503 7.503 0 00-6.921 4.586 2 2 0 01-3.683-1.558A11.492 11.492 0 0152.444 0c6.347 0 11.511 5.163 11.511 11.51 0 3.943-1.983 7.567-5.306 9.696a1.979 1.979 0 01-1.075.315zM11.262 65.438a2 2 0 01-1.587-3.215l4.381-5.731a1.995 1.995 0 012.803-.375 1.999 1.999 0 01.375 2.803l-4.381 5.732a1.994 1.994 0 01-1.591.786zM52.755 65.438a1.999 1.999 0 01-1.592-.786l-4.381-5.732a1.999 1.999 0 01.375-2.803 1.995 1.995 0 012.803.375l4.381 5.731a1.998 1.998 0 01-1.586 3.215zM38.019 43.222c-.516 0-1.03-.198-1.422-.594l-5.396-5.761c-.371-.373-.276-.879-.276-1.405V19.648a2 2 0 014 0V34.64l4.817 5.177c.774.784.618 2.051-.167 2.827-.39.385-1.049.578-1.556.578z"/></svg>