<svg xmlns="http://www.w3.org/2000/svg" width="65.001" height="65.001"><path d="M65 50.068a6.933 6.933 0 01-6.932 6.933H6.932A6.933 6.933 0 010 50.068V14.932A6.933 6.933 0 016.932 8h51.136a6.933 6.933 0 016.933 6.932L65 50.068zm-4-35.136A2.932 2.932 0 0058.068 12H6.932A2.932 2.932 0 004 14.932v35.136a2.933 2.933 0 002.932 2.933h51.136a2.933 2.933 0 002.933-2.933L61 14.932z"/><path d="M63.619 20h-61a1 1 0 110-2h61a1 1 0 110 2zM63.619 31h-61a1 1 0 110-2h61a1 1 0 110 2zM10.619 46h-4a1 1 0 110-2h4a1 1 0 110 2zM21.619 46h-7a1 1 0 110-2h7a1 1 0 110 2zM27.619 46h-2a1 1 0 110-2h2a1 1 0 110 2z"/></svg>