<svg xmlns="http://www.w3.org/2000/svg" width="64.999" height="65"><path d="M24.369 64.75a1.998 1.998 0 01-2-2.051l.195-7.447h-5.015c-3.822 0-6.551-3.149-6.551-7.021V22.092c0-3.773 2.729-6.843 6.551-6.843h40.137c3.822 0 7.313 3.069 7.313 6.843v26.136c0 3.871-3.49 7.021-7.313 7.021H38.262l-12.728 9.125c-.346.25-.755.376-1.165.376zm-6.818-45.5c-1.644 0-2.551 1.249-2.551 2.843v26.136c0 1.64.962 3.021 2.551 3.021h7.068a1.997 1.997 0 011.999 2.053l-.144 5.478 9.979-7.154c.34-.244.747-.375 1.165-.375h20.067c1.59 0 3.313-1.383 3.313-3.021V22.092c0-1.594-1.669-2.843-3.313-2.843H17.551z"/><path d="M3.18 38.65c-.472 0-.754-.166-1.135-.504C.582 36.851 0 35.15 0 33.228V7.092C0 3.319 2.729.25 6.551.25h40.137c3.822 0 7.313 3.069 7.313 6.843V8.25a2 2 0 01-4 0V7.092c0-1.594-1.669-2.843-3.313-2.843H6.551C4.907 4.25 4 5.499 4 7.092v26.136c0 .767.1 1.396.697 1.924.827.732.809 1.998.076 2.824-.396.445-1.041.674-1.593.674z"/><path d="M30.619 28.25h-8a1 1 0 110-2h8a1 1 0 110 2zM44.619 28.25h-10a1 1 0 110-2h10a1 1 0 110 2zM52.619 28.25h-4a1 1 0 110-2h4a1 1 0 110 2zM26.619 33.25h-4a1 1 0 110-2h4a1 1 0 110 2zM38.619 33.25h-8a1 1 0 110-2h8a1 1 0 110 2zM52.619 33.25h-10a1 1 0 110-2h10a1 1 0 110 2zM32.619 39.25h-10a1 1 0 110-2h10a1 1 0 110 2zM46.619 39.25h-10a1 1 0 110-2h10a1 1 0 110 2zM52.619 39.25h-2a1 1 0 110-2h2a1 1 0 110 2zM26.619 44.25h-4a1 1 0 110-2h4a1 1 0 110 2zM37.619 44.25h-7a1 1 0 110-2h7a1 1 0 110 2z"/></svg>