<svg xmlns="http://www.w3.org/2000/svg" width="65.65" height="65.65"><path d="M32.825 65.65c-16.702 0-30.291-13.588-30.291-30.288 0-16.702 13.589-30.289 30.291-30.289s30.291 13.588 30.291 30.289c0 16.7-13.589 30.288-30.291 30.288zm0-56.577c-14.497 0-26.291 11.793-26.291 26.289 0 14.495 11.794 26.288 26.291 26.288s26.291-11.793 26.291-26.288c0-14.496-11.794-26.289-26.291-26.289z"/><path d="M22.064 55.385a.994.994 0 01-.492-.129c-7.154-4.06-11.599-11.683-11.599-19.895a1 1 0 112 0c0 7.494 4.056 14.449 10.585 18.152a1 1 0 01-.494 1.872zM27.763 58.223c-.083 0-.167-.01-.251-.031a21.99 21.99 0 01-1.261-.363 1 1 0 01.608-1.906c.381.123.764.232 1.153.334a1 1 0 01-.249 1.966zM60.044 16.155a1.991 1.991 0 01-1.412-.584l-5.193-5.18a2.001 2.001 0 01-.004-2.828 1.998 1.998 0 012.828-.004l5.193 5.18a2 2 0 01-1.412 3.416zM38.618 43.321c-.493 0-.986-.181-1.373-.546l-5.853-5.469c-.4-.379-.687-.903-.687-1.455V19a2 2 0 014 0v15.989l5.226 4.877c.804.758.871 2.022.11 2.827a1.92 1.92 0 01-1.423.628zM32.706 8a2 2 0 01-2-2V2a2 2 0 014 0v4a2 2 0 01-2 2z"/></svg>