<svg xmlns="http://www.w3.org/2000/svg" width="65.001" height="65.001" fill="#9f41ff"><path d="M65 51.068a6.933 6.933 0 01-6.932 6.933H6.932A6.933 6.933 0 010 51.068V13.932A6.933 6.933 0 016.932 7h51.136a6.933 6.933 0 016.933 6.932L65 51.068zm-4-37.136A2.932 2.932 0 0058.068 11H6.932A2.932 2.932 0 004 13.932v37.136a2.933 2.933 0 002.932 2.933h51.136a2.933 2.933 0 002.933-2.933L61 13.932z"/><path d="M31.659 38.432c-.224 0-.447-.076-.632-.225l-16.765-13.65a1.001 1.001 0 011.263-1.551l16.14 13.141 15.748-12.541a1 1 0 111.246 1.564L32.282 38.213a.993.993 0 01-.623.219zM17.159 42.682a1 1 0 01-.767-1.639l.438-.522a.997.997 0 011.408-.127.998.998 0 01.127 1.407l-.438.523a.994.994 0 01-.768.358z"/><path d="M19.713 39.622a1 1 0 01-.748-1.664l5.625-6.336a1 1 0 111.496 1.328l-5.625 6.336a1.001 1.001 0 01-.748.336zM44.717 41.477c-.285 0-.57-.123-.769-.358l-6.017-7.195a1 1 0 011.535-1.283l6.016 7.195a1.002 1.002 0 01-.125 1.41 1.01 1.01 0 01-.64.231z"/></svg>