<svg xmlns="http://www.w3.org/2000/svg" width="65.133" height="65.133"><path d="M50.654 57.361a2 2 0 010-4c5.549 0 10.416-9.492 10.416-15.229 0-4.258-2.602-4.978-10.416-4.978a2 2 0 010-4c6.084 0 14.416 0 14.416 8.977 0 7.565-6.191 19.23-14.416 19.23z"/><path d="M41.654 65.133h-32c-8.192 0-9.592-3.885-9.592-10.98v-28.3c0-1.104.796-1.719 1.9-1.719h48c1.104 0 2.1.614 2.1 1.719v28.299c0 7.9-2.797 10.981-10.408 10.981zM4.062 28.134v26.019c0 6.012.485 6.98 5.592 6.98h32c5.365 0 6.408-1.282 6.408-6.98V28.134h-44z"/><path d="M7.652 42.872c-.26 0-.52-.109-.71-.29a1.046 1.046 0 01-.29-.71c0-.27.11-.529.29-.71.37-.37 1.05-.37 1.42 0 .18.19.29.44.29.71 0 .261-.11.521-.29.71-.19.18-.449.29-.71.29zM14.407 57.689c-5.667 0-7.345-1.733-7.345-7.417v-3.42a1 1 0 112 0v3.42c0 4.606.757 5.417 5.345 5.417a1 1 0 110 2zM18.842 20.861a1.998 1.998 0 01-1.274-3.542c1.556-1.285 2.497-2.611 2.518-3.549.006-.314-.071-.812-.822-1.487-2.091-1.881-6.441-5.796-2.336-11.457a2 2 0 113.238 2.348c-1.602 2.209-1.254 3.413 1.773 6.137 1.818 1.637 2.17 3.375 2.146 4.545-.047 2.179-1.42 4.442-3.97 6.548a1.995 1.995 0 01-1.273.457zM30.842 20.861a1.998 1.998 0 01-1.274-3.542c1.556-1.285 2.497-2.611 2.518-3.549.006-.314-.071-.812-.822-1.487-2.091-1.881-6.441-5.796-2.336-11.457a2 2 0 113.238 2.348c-1.602 2.209-1.254 3.413 1.773 6.137 1.818 1.637 2.17 3.375 2.146 4.545-.047 2.179-1.42 4.442-3.971 6.548a1.99 1.99 0 01-1.272.457z"/></svg>