<svg xmlns="http://www.w3.org/2000/svg" width="66" height="66"><path d="M57.5 18h-49C3.813 18 0 14.187 0 9.5S3.813 1 8.5 1h49C62.188 1 66 4.813 66 9.5S62.188 18 57.5 18zM8.5 5C6.019 5 4 7.019 4 9.5S6.019 14 8.5 14h49c2.48 0 4.5-2.019 4.5-4.5S59.98 5 57.5 5h-49zM49.5 65h-41C3.813 65 0 61.188 0 56.5S3.813 48 8.5 48h41c4.688 0 8.5 3.812 8.5 8.5S54.188 65 49.5 65zm-41-13C6.019 52 4 54.02 4 56.5S6.019 61 8.5 61h41c2.48 0 4.5-2.02 4.5-4.5S51.98 52 49.5 52h-41zM37.5 42h-29C3.813 42 0 38.188 0 33.5 0 28.813 3.813 25 8.5 25h29c4.688 0 8.5 3.813 8.5 8.5 0 4.688-3.812 8.5-8.5 8.5zm-29-13A4.505 4.505 0 004 33.5C4 35.98 6.019 38 8.5 38h29c2.48 0 4.5-2.02 4.5-4.5 0-2.481-2.02-4.5-4.5-4.5h-29z"/></svg>