<svg xmlns="http://www.w3.org/2000/svg" width="67.001" height="67"><path d="M33.501 61.25C21.733 61.25 0 52.383 0 39.75c0-12.634 21.733-21.5 33.501-21.5 11.767 0 33.5 8.866 33.5 21.5 0 12.633-21.733 21.5-33.5 21.5zm0-39C22.386 22.25 4 30.43 4 39.75s18.387 17.5 29.501 17.5c11.112 0 29.5-8.18 29.5-17.5s-18.388-17.5-29.5-17.5z"/><path d="M33.501 50.417C27.71 50.417 23 45.708 23 39.917c0-5.79 4.711-10.5 10.501-10.5 5.789 0 10.5 4.71 10.5 10.5 0 5.791-4.711 10.5-10.5 10.5zm0-19c-4.688 0-8.501 3.813-8.501 8.5 0 4.688 3.813 8.5 8.501 8.5 4.687 0 8.5-3.813 8.5-8.5s-3.813-8.5-8.5-8.5z"/><path d="M29.573 37.309a1.002 1.002 0 01-.736-1.678c.2-.217.415-.422.644-.609a.997.997 0 011.408.138.999.999 0 01-.136 1.407 4.512 4.512 0 00-.444.418.993.993 0 01-.736.324zM33.501 46.25a6.341 6.341 0 01-6.335-6.334 1 1 0 112 0 4.339 4.339 0 004.335 4.334 1 1 0 110 2zM33.376 15.75a2 2 0 01-2-2v-6a2 2 0 014 0v6c0 1.104-.897 2-2 2zM21.853 16.431a1.997 1.997 0 01-1.788-1.101l-1.852-3.68a2 2 0 01.888-2.686 1.999 1.999 0 012.686.887l1.852 3.68a2.001 2.001 0 01-1.786 2.9zM10.184 21.067a1.994 1.994 0 01-1.488-.663l-2.6-2.894a2 2 0 112.975-2.674l2.6 2.894a2 2 0 01-1.487 3.337zM44.081 16.431a2.001 2.001 0 01-1.785-2.9l1.853-3.68a1.997 1.997 0 012.686-.887 2 2 0 01.887 2.686l-1.852 3.68a2.003 2.003 0 01-1.789 1.101zM55.749 21.067a1.998 1.998 0 01-1.485-3.337l2.6-2.894a2 2 0 112.973 2.674l-2.601 2.894c-.393.44-.938.663-1.487.663z"/></svg>