<svg xmlns="http://www.w3.org/2000/svg" width="64.964" height="64.964"><path d="M32.482 64.964C14.571 64.964 0 50.393 0 32.482S14.571 0 32.482 0s32.482 14.571 32.482 32.482-14.571 32.482-32.482 32.482zm0-60.964C16.777 4 4 16.777 4 32.482s12.777 28.481 28.482 28.481c15.706 0 28.482-12.776 28.482-28.481C60.964 16.777 48.188 4 32.482 4z"/><path d="M56.63 33.482a1 1 0 01-1-1c0-10.408-7.002-19.59-17.028-22.332a1.001 1.001 0 01-.701-1.229 1.007 1.007 0 011.229-.701c10.893 2.98 18.5 12.956 18.5 24.262 0 .553-.446 1-1 1zM33.832 9.37c-.02 0-.037 0-.057-.002a24.081 24.081 0 00-1.292-.035 1 1 0 110-2c.47 0 .937.014 1.402.039a.999.999 0 01-.053 1.998zM37.689 41.609c-1.525 0-2.332-1.129-2.332-2.625V25.98c0-1.495.832-2.623 2.391-2.623.566 0 .959.153 1.459.442l10.447 6.518c.938.542 1.447 1.368 1.447 2.251-.002.83-.521 1.594-1.394 2.096l-10.545 6.492c-.519.299-.916.453-1.473.453zm.059-16.252c-.172 0-.391.045-.391.623v13.004c0 .562.129.625.332.625.207 0 .248-.062.444-.176l10.621-6.492c.291-.168.347-.314.347-.375 0-.092-.162-.316-.539-.533l-10.371-6.518c-.171-.098-.229-.158-.443-.158z"/><path d="M22.461 41.609c-1.42 0-2.104-1.104-2.104-2.625V25.98c0-1.521.694-2.623 2.129-2.623.522 0 .891.153 1.392.442l10.289 6.521c.903.522 1.397 1.331 1.396 2.2 0 .846-.535 1.627-1.43 2.144l-10.248 6.483c-.53.308-.906.462-1.424.462zm.025-16.252c-.315 0-.129.209-.129.623v13.004c0 .625-.008.625.104.625.116 0 .135-.031.386-.176l10.324-6.486c.328-.189.394-.356.394-.428 0-.086-.146-.287-.494-.486l-10.213-6.521c-.167-.095-.2-.155-.372-.155z"/></svg>