<svg xmlns="http://www.w3.org/2000/svg" width="64.54" height="64.54"><path d="M32.272 64.54C14.478 64.54.001 50.062 0 32.27.001 14.477 14.478 0 32.272 0c8.619 0 16.722 3.357 22.816 9.451 6.096 6.096 9.453 14.2 9.452 22.818.001 8.619-3.354 16.724-9.451 22.816-6.095 6.097-14.198 9.455-22.817 9.455zm0-60.54C16.684 4 4.001 16.682 4 32.27c.001 15.587 12.684 28.27 28.271 28.27 7.551 0 14.649-2.94 19.988-8.28 5.341-5.342 8.281-12.44 8.281-19.99 0-7.55-2.94-14.649-8.28-19.99C46.921 6.942 39.823 4 32.272 4z"/><path d="M32.272 63.54c-10.653 0-19.321-14.026-19.321-31.271C12.951 15.027 21.619 1 32.272 1 42.924 1 51.59 15.028 51.59 32.27c0 17.242-8.666 31.27-19.318 31.27zm0-60.54c-9.551 0-17.321 13.131-17.321 29.27 0 16.14 7.771 29.271 17.321 29.271S49.59 48.41 49.59 32.27C49.59 16.131 41.822 3 32.272 3z"/><path d="M32.271 25.004c-13.743 0-24.508-4.945-24.508-11.258a1 1 0 112 0c0 5.018 10.308 9.258 22.508 9.258s22.506-4.24 22.506-9.258a1 1 0 112 0c0 6.313-10.763 11.258-24.506 11.258zM55.777 53.006a1 1 0 01-1-1c0-5.02-10.309-9.26-22.508-9.26-12.2 0-22.507 4.24-22.507 9.26a1 1 0 11-2 0c0-6.314 10.765-11.26 24.507-11.26 13.743 0 24.508 4.945 24.508 11.26a1 1 0 01-1 1z"/><path d="M32.475 63.561a1 1 0 01-1-1v-61a1 1 0 112 0v61a1 1 0 01-1 1z"/><path d="M62.59 33.977h-40a1 1 0 110-2h40a1 1 0 110 2zM17.59 33.977h-15a1 1 0 110-2h15a1 1 0 110 2z"/></svg>