<svg width="512" height="512" fill="none" xmlns="http://www.w3.org/2000/svg"><g clip-path="url(#clip0)"><path d="M279.273 360.727c6.426 0 11.636-5.21 11.636-11.636 0-6.426-5.21-11.636-11.636-11.636-6.426 0-11.636 5.21-11.636 11.636 0 6.426 5.21 11.636 11.636 11.636zM91.455 430.545c6.426 0 11.636-5.21 11.636-11.636 0-6.426-5.21-11.636-11.636-11.636-6.426 0-11.636 5.21-11.636 11.636 0 6.426 5.21 11.636 11.636 11.636z" fill="#000"/><path d="M477.091 46.545H81.455c-19.782 0-34.909 15.127-34.909 34.909v116.364c0 6.982 4.655 11.636 11.636 11.636 6.981 0 11.636-4.655 11.636-11.636V81.455c0-6.982 4.655-11.636 11.636-11.636H477.09c6.982 0 11.636 4.655 11.636 11.636v279.273c0 6.982-4.655 11.636-11.636 11.636H197.818c-6.982 0-11.636 4.655-11.636 11.636 0 6.981 4.655 11.636 11.636 11.636h23.273v34.909c0 6.982-4.655 11.636-11.636 11.636h-11.636c-6.982 0-11.636 4.655-11.636 11.636 0 6.981 4.655 11.636 11.636 11.636h162.909c6.982 0 11.636-4.655 11.636-11.636 0-6.981-4.655-11.636-11.636-11.636h-11.636c-6.982 0-11.636-4.655-11.636-11.636v-34.909h139.636c19.782 0 34.909-15.127 34.909-34.909V81.455c-.001-19.782-15.128-34.91-34.91-34.91zM242.036 442.182c1.164-3.491 2.327-6.982 2.327-11.636v-34.909h69.818v34.909c0 4.651 1.162 8.139 2.324 11.627l.003.009h-74.472z" fill="#000"/><path d="M477.091 46.545H81.455c-19.782 0-34.909 15.127-34.909 34.909v116.364c0 6.982 4.655 11.636 11.636 11.636 6.981 0 11.636-4.655 11.636-11.636V81.455c0-6.982 4.655-11.636 11.636-11.636H477.09c6.982 0 11.636 4.655 11.636 11.636v279.273c0 6.982-4.655 11.636-11.636 11.636H197.818c-6.982 0-11.636 4.655-11.636 11.636 0 6.981 4.655 11.636 11.636 11.636h23.273v34.909c0 6.982-4.655 11.636-11.636 11.636h-11.636c-6.982 0-11.636 4.655-11.636 11.636 0 6.981 4.655 11.636 11.636 11.636h162.909c6.982 0 11.636-4.655 11.636-11.636 0-6.981-4.655-11.636-11.636-11.636h-11.636c-6.982 0-11.636-4.655-11.636-11.636v-34.909h139.636c19.782 0 34.909-15.127 34.909-34.909V81.455c-.001-19.782-15.128-34.91-34.91-34.91zM242.036 442.182c1.164-3.491 2.327-6.982 2.327-11.636v-34.909h69.818v34.909c0 4.651 1.162 8.139 2.324 11.627l.003.009h-74.472z" stroke="#000"/><path d="M138 232.727H44.909C25.127 232.727 10 247.855 10 267.636v162.909c0 19.782 15.127 34.909 34.909 34.909H138c19.782 0 34.909-15.127 34.909-34.909V267.636c0-19.781-15.127-34.909-34.909-34.909zm11.636 197.818c0 6.982-4.655 11.636-11.636 11.636H44.909c-6.982 0-11.636-4.655-11.636-11.636V267.636c0-6.982 4.655-11.636 11.636-11.636H138c6.982 0 11.636 4.655 11.636 11.636v162.909z" fill="#000"/><path fill-rule="evenodd" clip-rule="evenodd" d="M376.84 305H211.5a5.5 5.5 0 100 11h165.34v-11zm19.886 11H454.5a5.5 5.5 0 100-11h-57.774v11z" fill="#000"/></g><defs><clipPath id="clip0"><path fill="#fff" d="M0 0h512v512H0z"/></clipPath></defs></svg>