<svg xmlns="http://www.w3.org/2000/svg" width="65.001" height="65.001"><path d="M65 57.568a6.933 6.933 0 01-6.932 6.933H6.932A6.934 6.934 0 010 57.568V20.432A6.933 6.933 0 016.932 13.5h51.136a6.933 6.933 0 016.933 6.932L65 57.568zm-4-37.136a2.932 2.932 0 00-2.932-2.932H6.932A2.932 2.932 0 004 20.432v37.136A2.932 2.932 0 006.932 60.5h51.136a2.933 2.933 0 002.933-2.932L61 20.432z"/><path d="M41 17.5a2 2 0 01-2-2V6.714c0-1.83-2.374-2.214-3.637-2.214h-7.136C27.91 4.5 26 4.563 26 6.715V15.5a2 2 0 01-4 0V6.714C22 3.113 24.115.5 28.228.5h7.137c3.982 0 7.636 2.556 7.636 6.215V15.5a2.002 2.002 0 01-2.001 2zM26.131 39.5h-13a1 1 0 110-2h13a1 1 0 110 2zM7.13 39.5h-5a1 1 0 110-2h5a1 1 0 110 2zM63.131 39.5h-25a1 1 0 110-2h25a1 1 0 110 2z"/><path d="M39 41.43a4.07 4.07 0 01-4.07 4.07h-4.86A4.07 4.07 0 0126 41.43v-4.86a4.07 4.07 0 014.07-4.069h4.86a4.07 4.07 0 014.069 4.069L39 41.43zm-2-4.86a2.068 2.068 0 00-2.07-2.069h-4.86c-1.144 0-2.07.926-2.07 2.069v4.859a2.07 2.07 0 002.07 2.07h4.86a2.07 2.07 0 002.069-2.07L37 36.57z"/></svg>