<svg xmlns="http://www.w3.org/2000/svg" width="66.482" height="66.482"><path d="M23.001 56.721a6.933 6.933 0 01-6.932 6.933H6.932A6.934 6.934 0 010 56.721V34.585a6.933 6.933 0 016.932-6.932h9.137a6.933 6.933 0 016.932 6.932v22.136zm-4-22.136a2.933 2.933 0 00-2.932-2.932H6.932A2.933 2.933 0 004 34.585v22.138a2.932 2.932 0 002.932 2.932h9.137a2.932 2.932 0 002.932-2.932V34.585z"/><path d="M13.001 54.903a1.75 1.75 0 01-1.75 1.75h-.5a1.75 1.75 0 01-1.75-1.75v-.5c0-.968.784-1.75 1.75-1.75h.5c.966 0 1.75.782 1.75 1.75v.5zM38.076 63.688c-4.977 0-10.323-.631-12.136-8.174-.036-.152.061-.311.061-.467V29.768c0-.279-.057-.556.057-.811l.338-.895c.558-1.727 2.183-4.359 4.807-8.435 1.794-2.788 3.637-5.672 4.209-7.122.975-2.467.971-5.793.891-6.865a1.995 1.995 0 01.959-1.865c.168-.101 1.686-.98 3.648-.98 1.251 0 2.405.347 3.432 1.029 2.781 1.849 5.896 4.738 5.283 10.716-.191 1.885-.98 3.653-1.744 5.364-.5 1.124-.974 2.186-1.238 3.189-.055.204-.061.758-.063 1.222 2.181.188 4.376.354 6.351.354 1.246 0 2.258-.01 3.076-.019 1.06-.011 1.795-.017 2.311.002.377.008.73.02 1.057.063a8.136 8.136 0 015.424 3.144 8.14 8.14 0 011.612 6.059 8.196 8.196 0 01-3.041 5.342 7.25 7.25 0 01.815 4.426 7.196 7.196 0 01-2.43 4.521.81.81 0 00.004.075 6.373 6.373 0 01.455 3.348 6.4 6.4 0 01-2.381 4.16c.344.84.458 1.777.327 2.751-.267 1.986-1.676 3.662-3.618 4.323-1.175.593-2.658.717-4.637.717-.667 0-1.411-.014-2.237-.029a175.71 175.71 0 00-3.413-.039c-1.588 0-3.08.049-4.522.096-1.297.04-2.516.079-3.657.079zm-8.075-8.885c1 4.2 3.246 4.887 8.19 4.887 1.101 0 2.218-.038 3.466-.079 1.478-.048 2.974-.099 4.625-.099 1.301 0 2.444.021 3.474.041.799.016 1.512.028 2.155.028.577 0 2.331 0 2.856-.302a2.03 2.03 0 01.425-.184c.431-.127.928-.521 1.003-1.086.031-.233.033-.567-.133-.841-.43-.702-.545-1.651-.312-2.543.207-.788.666-1.417 1.295-1.769a2.363 2.363 0 001.201-1.758 2.345 2.345 0 00-.182-1.278c-.455-1.003-.569-3.419.837-4.454a3.268 3.268 0 00.809-4.432c-.88-1.342-.396-3.728.938-4.642a4.19 4.19 0 001.793-2.903 4.18 4.18 0 00-.825-3.102 4.165 4.165 0 00-2.775-1.608 4.013 4.013 0 00-.533-.029l-.143-.001c-.468-.019-1.162-.011-2.121 0-.828.008-1.854.019-3.115.019-2.543 0-5.314-.246-7.996-.483l-.606-.054a1.994 1.994 0 01-1.811-2.213c.057-.505.06-1.05.062-1.577.006-.808.012-1.569.196-2.271.348-1.316.909-2.577 1.452-3.797.664-1.488 1.291-2.894 1.418-4.143.41-4.008-1.514-5.645-3.52-6.979-.527-.349-1.213-.417-1.803-.3-.014 1.716-.206 4.595-1.206 7.123-.72 1.814-2.595 4.729-4.58 7.815-1.791 2.781-4.019 6.244-4.406 7.546-.024.081.061.161.026.239L30 30.19v24.613z"/><path d="M46.934 56.653h-.019c-.114 0-.217.185-.312.169-.545-.01-.982-.354-.982-.9 0-.554.447-.951 1-.951.326 0 1.316.023 1.337 1.006.003.143-.028.094-.09.217-.143.377-.508.459-.934.459zM39.619 57.337c-2.429 0-4.51-.485-6.432-2.698a1 1 0 111.51-1.31c1.975 2.273 3.979 2.134 7.613 1.879.461-.031.939-.064 1.44-.095.536-.035 1.024.388 1.058.938a1 1 0 01-.938 1.058c-.493.028-.966.063-1.42.094-.996.068-1.938.134-2.831.134z"/></svg>