<svg xmlns="http://www.w3.org/2000/svg" width="67.001" height="67.001"><path d="M48.693 64.601H6.556C2.734 64.601 0 61.457 0 57.594V22.458c0-3.78 2.733-6.856 6.556-6.856h42.137c3.822 0 7.308 3.076 7.308 6.856v9.143a2 2 0 01-4 0v-9.144c0-1.602-1.663-2.856-3.308-2.856H6.556C4.912 19.601 4 20.855 4 22.457v35.137c0 1.629.967 3.006 2.556 3.006h42.137c1.59 0 3.308-1.377 3.308-3.006v-8.993a2 2 0 014 0v8.993c-.001 3.863-3.485 7.007-7.308 7.007z"/><path d="M12.744 57.563C9.473 57.563 7 54.885 7 51.594V34.601a1 1 0 112 0v16.993c0 2.189 1.576 3.97 3.744 3.97a1 1 0 110 1.999zM17.624 57.601h-1a1 1 0 110-2h1a1 1 0 110 2zM67 42.668a6.933 6.933 0 01-6.932 6.933H45.932A6.933 6.933 0 0139 42.668v-4.137a6.932 6.932 0 016.932-6.931h14.137a6.933 6.933 0 016.933 6.931L67 42.668zm-4-4.137a2.932 2.932 0 00-2.932-2.932H45.932A2.932 2.932 0 0043 38.531v4.137a2.933 2.933 0 002.932 2.933h14.137a2.933 2.933 0 002.933-2.933L63 38.531z"/><circle cx="48.042" cy="40.525" r="1.917"/><path d="M43.875 19.15a2 2 0 01-2-2c0-5.928-4.822-10.75-10.75-10.75-5.929 0-10.751 4.822-10.751 10.75a2 2 0 01-4 0c0-8.133 6.617-14.75 14.751-14.75 8.133 0 14.75 6.617 14.75 14.75a2 2 0 01-2 2z"/></svg>