<svg xmlns="http://www.w3.org/2000/svg" width="65" height="65"><path d="M51.436 65h-.334C47.495 65 44 61.357 44 57.729v-2.996c0-1.371-.495-1.731-1.895-1.731h-.334c-.974-.001-2.771.298-2.771 1.73v2.996C39 61.202 36.473 65 32.776 65h-.333C28.619 65 26 61.13 26 57.729v-2.996c0-1.635-1.799-1.731-2.553-1.731h-.333c-1.274 0-3.114.496-3.114 1.731v2.996C20 61.215 17.908 65 14.118 65h-.333C10.273 65 7 61.425 7 57.729V24.012C7 10.728 18.061 0 31.712 0h1.796C46.986 0 58 10.728 58 24.012v33.716C58 61.123 55.166 65 51.436 65zm-9.665-16h.334C45.712 49 48 51.146 48 54.73v2.998c0 1.4 1.718 3.271 3.102 3.271h.334c1.225 0 2.564-1.722 2.564-3.271V24.012C54 12.745 44.973 4 33.508 4h-1.796C20.266 4 11 12.933 11 24.012v33.716C11 59.191 12.488 61 13.785 61h.333C15.315 61 16 59.066 16 57.729v-2.996c0-3.774 3.643-5.731 7.114-5.731h.333c3.831 0 6.553 2.31 6.553 5.731v2.996C30 59.28 31.233 61 32.443 61h.333C34.003 61 35 59.204 35 57.729v-2.996C35 51.364 37.82 49 41.771 49z"/><path d="M32.954 8h-.035c-.213 0-.427-.046-.642-.046a1.014 1.014 0 010-2.026c.238 0 .476-.001.711.008.552.019.983.515.965 1.067-.019.54-.463.997-.999.997zM50 36.92a1 1 0 01-1-1V23.85c0-7.289-4.915-13.461-12.195-15.357a1.01 1.01 0 01-.729-1.22 1.018 1.018 0 011.236-.716C45.488 8.687 51 15.636 51 23.85v12.07a1 1 0 01-1 1zM20.294 31.754a5.846 5.846 0 01-5.84-5.84c0-3.22 2.619-5.84 5.84-5.84 3.22 0 5.84 2.62 5.84 5.84 0 3.22-2.62 5.84-5.84 5.84zm0-9.68c-2.117 0-3.84 1.723-3.84 3.84s1.723 3.84 3.84 3.84 3.84-1.723 3.84-3.84-1.723-3.84-3.84-3.84zM35.029 31.754a5.846 5.846 0 01-5.84-5.84c0-3.22 2.619-5.84 5.84-5.84 3.22 0 5.84 2.62 5.84 5.84 0 3.22-2.62 5.84-5.84 5.84zm0-9.68c-2.117 0-3.84 1.723-3.84 3.84s1.723 3.84 3.84 3.84 3.84-1.723 3.84-3.84-1.723-3.84-3.84-3.84z"/></svg>