<svg xmlns="http://www.w3.org/2000/svg" width="66.949" height="66.949"><path d="M33.558 42.628c-9.49 0-16.428-17.231-16.428-26.2C17.129 7.369 24.499 0 33.558 0c9.059 0 16.428 7.369 16.428 16.428-.001 8.968-6.938 26.2-16.428 26.2zm0-38.628C26.705 4 21.13 9.575 21.13 16.428c0 7.764 6.388 22.2 12.428 22.2 6.039 0 12.428-14.437 12.428-22.2C45.985 9.575 40.411 4 33.558 4z"/><path d="M25.163 17.899a1 1 0 01-1-1c0-5.499 4.474-9.973 9.973-9.973a1 1 0 010 2c-4.396 0-7.973 3.577-7.973 7.973a1 1 0 01-1 1zM25.514 21.738a.99.99 0 01-1-1c0-.26.101-.52.29-.71.37-.37 1.04-.37 1.41 0 .19.19.3.45.3.71a.992.992 0 01-.3.71.961.961 0 01-.7.29zM33.475 66.949c-5.649 0-24.083-.577-24.083-8 0-10.635 7.018-20.227 17.066-23.326l1.225-.378.855.955c3.062 3.42 6.725 3.581 10.01-.065l.861-.957 1.227.387c9.963 3.145 16.922 12.761 16.922 23.386 0 7.421-18.434 7.998-24.083 7.998zm-6.973-27.115c-7.777 2.934-13.111 10.625-13.111 19.115 0 1.102 6.175 4 20.083 4 13.907 0 20.083-2.898 20.083-4 0-8.486-5.283-16.199-12.986-19.17-2.141 2-4.543 3.049-7.014 3.049-2.527 0-4.943-1.029-7.055-2.994z"/></svg>