<svg xmlns="http://www.w3.org/2000/svg" viewBox="0 0 511.999 511.999"><path d="M267.998 61.092l1-.002c48.74 0 94.412 18.844 128.686 53.118 34.557 34.557 53.459 80.618 53.225 129.697-.052 11.045 8.859 20.042 19.905 20.095h.097c10.999 0 19.944-8.892 19.997-19.905.285-59.837-22.778-116.009-64.94-158.172C384.134 44.088 328.43 21.09 269.004 21.09l-1.099.002c-11.046.053-19.957 9.05-19.905 20.095.053 11.013 8.997 19.905 19.998 19.905zM511.949 412.553c-.714-19.805-8.964-38.287-23.229-52.042-27.931-26.933-51.332-42.481-73.646-48.929-30.75-8.887-59.226-.805-84.641 24.016l-.115.113-27.066 26.865c-16.811-9.444-49.491-30.227-85.234-65.971l-2.632-2.63c-35.508-35.507-56.423-68.373-65.939-85.253l26.839-27.041.113-.115c24.821-25.414 32.902-53.892 24.016-84.64-6.448-22.313-21.995-45.715-48.929-73.646C137.731 9.015 119.249.765 99.446.051 79.647-.662 60.614 6.232 45.865 19.472l-.574.516c-.267.239-.527.486-.78.739C15.151 50.085-.239 91.187.003 139.588c.41 82.22 45.599 176.249 120.879 251.528l.188.186c14.152 14.132 30.22 28.116 47.762 41.567 8.765 6.721 21.319 5.063 28.041-3.702 6.721-8.766 5.064-21.32-3.702-28.041-16.236-12.448-31.041-25.333-44.004-38.296a16.31 16.31 0 00-.187-.185C81.095 294.683 40.361 211.239 40.002 139.387c-.186-37.276 11.027-68.389 32.431-90.014l.153-.138a35.978 35.978 0 0150.108 1.808c51.781 53.698 48.031 79.049 25.151 102.511l-37.074 37.353a20 20 0 00-4.075 22.226c.941 2.114 23.709 52.427 80.414 109.132l2.632 2.629c56.698 56.699 107.011 79.466 109.125 80.408a19.999 19.999 0 0022.226-4.075l37.346-37.068c23.466-22.883 48.818-26.638 102.518 25.145a35.977 35.977 0 011.81 50.105l-.141.157c-21.45 21.229-52.231 32.433-89.102 32.433-.303 0-.608 0-.912-.002-29.471-.147-63.598-8.226-98.689-23.362-10.142-4.376-21.911.3-26.286 10.443-4.375 10.142.301 21.911 10.443 26.286 40.562 17.496 79.029 26.456 114.332 26.633l1.122.002c47.914-.001 88.608-15.379 117.738-44.51.254-.254.5-.513.739-.78l.519-.577c13.236-14.747 20.133-33.775 19.419-53.579z"/><path d="M369.457 142.549c-21.453-21.454-42.043-27.147-51.939-29.884-10.649-2.945-21.663 3.299-24.607 13.946-2.944 10.646 3.299 21.663 13.946 24.607 8.092 2.238 20.32 5.62 34.316 19.615 13.473 13.473 17.052 25.636 19.421 33.685l.289.979c2.574 8.697 10.538 14.329 19.169 14.329 1.88.001 3.792-.267 5.686-.828 10.591-3.135 16.636-14.263 13.5-24.854l-.271-.918c-3.085-10.482-8.827-29.994-29.51-50.677z"/></svg>