<svg xmlns="http://www.w3.org/2000/svg" width="65.475" height="65.476"><path d="M32.857 31.046a9.138 9.138 0 01-6.5-2.691c-3.582-3.582-3.582-9.41 0-12.992a9.132 9.132 0 016.498-2.691 9.13 9.13 0 016.499 2.691c3.582 3.582 3.582 9.41 0 12.992a9.128 9.128 0 01-6.497 2.691zm-.002-14.375a5.154 5.154 0 00-3.669 1.52 5.194 5.194 0 000 7.336 5.166 5.166 0 003.671 1.52c1.385 0 2.688-.54 3.668-1.52a5.196 5.196 0 000-7.336 5.151 5.151 0 00-3.67-1.52zM46.084 19.792c-.453 0-.863-.31-.973-.771-.074-.318-.125-.55-.162-.729-.066-.307-.084-.383-.131-.49a1.002 1.002 0 01.522-1.314 1.003 1.003 0 011.313.523c.125.291.172.506.248.861.037.169.084.388.154.689a1 1 0 01-.971 1.231zM44.276 15.491c-.332 0-.656-.164-.847-.464a13.038 13.038 0 00-9.271-5.955 1 1 0 11.27-1.982 15.05 15.05 0 0110.691 6.865 1.003 1.003 0 01-.843 1.536z"/><path d="M32.836 65.476c-1.672 0-4.86-.76-7.442-5.85-2.992-5.896-14.13-30.427-14.13-38.153C11.264 9.633 20.897 0 32.738 0c11.84 0 21.473 9.633 21.473 21.473 0 7.64-11.109 32.484-13.947 38.145-1.894 3.778-4.531 5.858-7.428 5.858zm-.098-61.475c-9.635 0-17.474 7.838-17.474 17.473 0 6.07 9.722 28.509 13.697 36.343 1.18 2.325 2.591 3.659 3.875 3.659 1.266 0 2.707-1.364 3.852-3.649 3.478-6.93 13.523-30.19 13.523-36.353 0-9.635-7.837-17.473-17.473-17.473z"/></svg>