<svg xmlns="http://www.w3.org/2000/svg" width="64.964" height="64.964"><path d="M21.41 43.48c-.479 0-.959-.191-1.389-.556l-6.829-5.563c-.708-.601-1.045-1.488-.893-2.334a2.084 2.084 0 011.36-1.601l8.549-3.085a2.117 2.117 0 012.346.656c.479.572.685 1.361.551 2.111l-1.773 8.516c-.202 1.118-.957 1.856-1.922 1.856zm1.519-11.267l-8.59 3.096c-.063.021-.065.036-.071.071-.021.117.041.306.201.44l6.828 5.564a.88.88 0 01.028.023.959.959 0 00.043-.166l1.773-8.516a.587.587 0 00-.121-.445c-.041-.048-.077-.067-.091-.067z"/><path d="M32.482 64.964C14.571 64.964 0 50.393 0 32.482S14.571 0 32.482 0s32.482 14.571 32.482 32.482-14.571 32.482-32.482 32.482zm0-60.964C16.777 4 4 16.777 4 32.482s12.777 28.481 28.482 28.481c15.706 0 28.482-12.776 28.482-28.481C60.964 16.777 48.188 4 32.482 4z"/><path d="M32.482 48.212c-.553 0-1-.446-1-1s.447-1 1-1c7.571 0 13.73-6.16 13.73-13.729 0-7.571-6.159-13.73-13.73-13.73s-13.73 6.159-13.73 13.73a1 1 0 01-2 0c0-8.674 7.057-15.73 15.73-15.73 8.672 0 15.73 7.057 15.73 15.73s-7.056 15.729-15.73 15.729zM56.63 33.482a1 1 0 01-1-1c0-10.408-7.003-19.59-17.028-22.332a1 1 0 01-.701-1.229 1.006 1.006 0 011.229-.701c10.891 2.98 18.5 12.956 18.5 24.262 0 .553-.446 1-1 1zM33.831 9.37c-.019 0-.037 0-.056-.002-.43-.023-.86-.035-1.293-.035a1 1 0 110-2c.47 0 .937.014 1.402.039a.999.999 0 01-.053 1.998z"/></svg>