<svg xmlns="http://www.w3.org/2000/svg" width="65.757" height="65.757"><path d="M28.731 65.75c-2.118 0-3.916-1.363-5.965-3.412L3.428 42.998c-4.57-4.57-4.57-7.358 0-11.93L33.902.592a1.989 1.989 0 011.61-.576l25.854 2.557a2.002 2.002 0 011.83 1.889l2.551 25.785a1.993 1.993 0 01-.576 1.611L34.693 62.337c-2.046 2.047-3.843 3.413-5.962 3.413zm7.332-61.661L6.256 33.896c-2.988 2.989-2.988 3.283 0 6.272l19.338 19.34c.963.961 2.334 2.24 3.138 2.24.802 0 2.173-1.279 3.134-2.24L61.674 29.7 59.367 6.396 36.063 4.089z"/><path d="M12.241 40.235a.997.997 0 01-.707-.293c-2.628-2.629-1.998-4.185.297-6.479l9.09-9.089a.999.999 0 111.414 1.414l-9.09 9.089c-1.845 1.846-1.864 2.084-.297 3.651a.999.999 0 01-.707 1.707zM23.661 24.046a.999.999 0 01-.708-1.706l.813-.814a.998.998 0 011.413-.002.998.998 0 01.003 1.414l-.813.814a.99.99 0 01-.708.294zM47.482 26.323c-4.572 0-8.293-3.72-8.293-8.292 0-4.572 3.721-8.292 8.293-8.292 4.571 0 8.291 3.72 8.291 8.292 0 4.573-3.718 8.292-8.291 8.292zm0-12.584a4.298 4.298 0 00-4.293 4.292c0 2.366 1.926 4.292 4.293 4.292s4.291-1.926 4.291-4.292a4.296 4.296 0 00-4.291-4.292z"/></svg>