<svg xmlns="http://www.w3.org/2000/svg" width="67.837" height="67.837"><path d="M50.626 66.835a6.713 6.713 0 01-3.17-.795l-13.537-7.287-13.533 7.285c-2.194 1.17-4.944 1.012-6.964-.373-2.075-1.431-3.146-3.933-2.731-6.377l2.651-15.838-11.44-11.424C.144 30.276-.451 27.738.351 25.403c.798-2.314 2.817-3.978 5.271-4.342l15.562-2.313 6.759-14.033c1.089-2.256 3.435-3.713 5.976-3.713 2.543 0 4.889 1.458 5.975 3.713l6.761 14.033 15.56 2.314c2.452.363 4.474 2.025 5.272 4.338a6.375 6.375 0 01-1.549 6.627L54.493 43.45l2.654 15.84c.411 2.444-.66 4.946-2.729 6.373a6.699 6.699 0 01-3.792 1.172zM33.919 54.48c.326 0 .652.08.948.238l14.48 7.795a2.76 2.76 0 002.808-.15c.801-.551 1.204-1.477 1.047-2.411l-2.824-16.858a2.006 2.006 0 01.561-1.746l12.174-12.153a2.401 2.401 0 00.591-2.495c-.308-.891-1.104-1.538-2.076-1.682l-16.608-2.47a2 2 0 01-1.509-1.11L36.289 6.451c-.424-.881-1.354-1.449-2.37-1.449s-1.947.569-2.374 1.45l-7.217 14.986a1.999 1.999 0 01-1.508 1.11l-16.61 2.47c-.958.143-1.772.804-2.077 1.687-.3.873-.072 1.827.593 2.489l12.172 12.154c.458.457.666 1.107.56 1.746l-2.822 16.857c-.158.936.245 1.859 1.053 2.416.804.551 1.923.617 2.809.145l14.474-7.793c.295-.158.621-.239.947-.239z"/><path d="M12.003 30.036a1.001 1.001 0 01-.159-1.987l.664-.108a.994.994 0 011.147.827 1 1 0 01-.827 1.147l-.664.108a.971.971 0 01-.161.013zm3.672-.596a1 1 0 01-.188-1.982L26.31 25.37l4.082-9.362a1 1 0 111.834.799l-4.293 9.845a1 1 0 01-.728.582l-11.34 2.188a.947.947 0 01-.19.018z"/></svg>