<svg xmlns="http://www.w3.org/2000/svg" width="66.849" height="66.848"><path d="M33.527 64.042c-16.301 0-29.563-13.262-29.563-29.562 0-16.299 13.262-29.56 29.563-29.56 16.299 0 29.561 13.261 29.561 29.56-.001 16.3-13.262 29.562-29.561 29.562zm0-55.123c-14.096 0-25.563 11.467-25.563 25.56 0 14.096 11.467 25.562 25.563 25.562 14.094 0 25.561-11.467 25.561-25.562-.001-14.093-11.469-25.56-25.561-25.56z"/><path d="M33.526 47.368c-7.106 0-12.888-5.781-12.888-12.889 0-7.105 5.781-12.886 12.888-12.886s12.886 5.781 12.886 12.886c0 7.107-5.78 12.889-12.886 12.889zm0-23.775c-6.003 0-10.888 4.884-10.888 10.886 0 6.004 4.885 10.889 10.888 10.889s10.886-4.885 10.886-10.889c0-6.002-4.883-10.886-10.886-10.886zM51.416 66.786c-3.688 0-7.258-1.32-10.053-3.719a1.998 1.998 0 01-.213-2.82 1.995 1.995 0 012.819-.215 11.437 11.437 0 007.445 2.754c6.305 0 11.434-5.129 11.434-11.434 0-2.973-1.136-5.791-3.198-7.932a1.998 1.998 0 01.055-2.828 1.996 1.996 0 012.826.053 15.357 15.357 0 014.317 10.707c.002 8.51-6.921 15.434-15.432 15.434zM15.434 66.5C6.924 66.5 0 59.577 0 51.067c0-3.689 1.321-7.258 3.721-10.051a2 2 0 113.034 2.607A11.425 11.425 0 004 51.066C4 57.372 9.129 62.5 15.434 62.5a11.39 11.39 0 007.934-3.199 2 2 0 112.774 2.881A15.36 15.36 0 0115.434 66.5zM5.758 27.593a1.993 1.993 0 01-1.441-.613A15.365 15.365 0 01.001 16.273C.001 7.763 6.925.839 15.435.839c4.253 0 8.165 1.604 11.314 4.641a2 2 0 11-2.776 2.879c-2.423-2.335-5.295-3.52-8.538-3.52-6.305 0-11.434 5.129-11.434 11.434 0 2.974 1.136 5.791 3.198 7.934a1.998 1.998 0 01-1.441 3.386zM60.548 26.244a2 2 0 01-1.517-3.302 11.437 11.437 0 002.756-7.444c0-6.305-5.129-11.435-11.434-11.435-2.959 0-5.867 1.396-7.779 3.732a2 2 0 01-3.095-2.533C42.143 2.006 46.208.063 50.354.063c8.51 0 15.434 6.924 15.434 15.435 0 3.688-1.32 7.256-3.721 10.05-.396.46-.956.696-1.519.696zM61.027 28.715h-9c-.554 0-1-.447-1-1 0-.553.446-1 1-1h9a1 1 0 010 2z"/><path d="M48.027 28.715h-4c-.554 0-1-.447-1-1 0-.553.446-1 1-1h4a1 1 0 010 2zM61.027 41.715h-17c-.554 0-1-.447-1-1s.446-1 1-1h17a1 1 0 010 2zM23.027 28.715h-17a1 1 0 110-2h17a1 1 0 110 2zM23.027 41.715h-17a1 1 0 110-2h17a1 1 0 110 2zM41.406 62.715a1 1 0 01-1-1v-17a1 1 0 112 0v17a1 1 0 01-1 1zM28.407 63.715a1 1 0 01-1-1v-5a1 1 0 112 0v5a1 1 0 01-1 1zM28.407 54.715a1 1 0 01-1-1v-8a1 1 0 112 0v8a1 1 0 01-1 1zM41.406 25.715a1 1 0 01-1-1v-18a1 1 0 112 0v18a1 1 0 01-1 1zM28.407 24.715a1 1 0 01-1-1v-17a1 1 0 112 0v17a1 1 0 01-1 1z"/></svg>