<svg xmlns="http://www.w3.org/2000/svg" width="66.109" height="66.109"><path d="M52.311 66.109H13.346a1.999 1.999 0 01-1.933-2.513c.55-2.065 13.49-50.68 15.78-57.185C28.162 3.659 29.792 0 32.755 0c2.94 0 4.552 3.597 5.508 6.303 2.405 6.803 14.717 52.655 15.89 57.024a1.999 1.999 0 01-1.842 2.782zm-36.361-4h33.733c-2.757-10.248-13.088-48.524-15.19-54.474-.789-2.231-1.424-3.138-1.737-3.482-.321.35-.975 1.277-1.787 3.586-1.948 5.528-12.273 44.085-15.019 54.37z"/><path d="M59.055 66.109h-52a2 2 0 010-4h52a2 2 0 010 4zM48.055 53.109h-32a1 1 0 110-2h32a1 1 0 110 2zM45.055 38.109h-7a1 1 0 110-2h7a1 1 0 110 2zM34.054 38.109h-14a1 1 0 110-2h14a1 1 0 110 2zM41.055 23.109h-16a1 1 0 110-2h16a1 1 0 110 2z"/></svg>