<svg xmlns="http://www.w3.org/2000/svg" width="67.026" height="67.026"><path d="M32.983 67.026c-.192 0-.112-.027-.3-.084-1.12-.335-27.17-8.39-27.17-25.325v-28.61c0-1.104.622-2 1.727-2 4.977 0 8.949-4.054 9.022-9.032C16.279.881 17.032 0 18.125 0H47.81c1.094 0 1.982.881 2 1.975.073 4.979 4.454 9.03 9.432 9.03 1.104 0 2.272.897 2.272 2.002v28.62c0 14.836-26.438 24.854-27.553 25.271-.228.084-.74.128-.978.128zM9.513 14.854v26.763c0 12.71 20.097 20.007 23.954 21.288 7.272-2.873 24.046-11.556 24.046-21.278V14.854C51.513 13.99 46.921 10 45.987 4h-26.04c-.935 6-5.434 9.99-10.434 10.854z"/><path d="M23.154 54.745a.996.996 0 01-.448-.104c-3.845-1.933-6.82-4.674-8.604-7.934a.999.999 0 111.753-.961c1.589 2.9 4.269 5.357 7.748 7.105a1 1 0 01-.449 1.894zM13.238 42.994a.999.999 0 01-.962-.729c-.18-.642-.25-1.021-.25-1.021a1 1 0 011.966-.367c.004.021.065.334.209.848a.998.998 0 01-.963 1.269zM32.513 65.008a1 1 0 01-1-1v-62a1 1 0 112 0v62c0 .551-.449 1-1 1z"/><path d="M58.967 34H6.968a1 1 0 110-2h51.999a1 1 0 110 2z"/></svg>