<svg width="512" height="512" fill="none" xmlns="http://www.w3.org/2000/svg"><g clip-path="url(#clip0)"><path d="M437.76 73.579C389.12 26.56 325.12 0 256.96 0 61.333 0-61.504 211.947 36.181 380.544L0 512l135.147-35.243c58.88 31.808 107.114 28.992 121.941 30.87 226.837 0 339.755-274.432 180.352-433.216l.32-.832z" fill="#fff"/><path d="M257.429 464.021l-.128-.021h-.341c-67.883 0-111.253-32.149-115.52-34.005l-80 20.8 21.44-77.76-5.099-8c-21.12-33.622-32.341-72.342-32.341-112.214 0-187.584 229.227-281.386 361.877-148.8 132.331 131.2 39.424 360-149.888 360z" fill="url(#paint0_linear)"/><path d="M373.291 306.816c-6.422-3.2-37.696-18.496-43.52-20.608-13.078-4.843-9.387-.768-34.496 27.989-3.734 4.16-7.446 4.48-13.782 1.6-6.4-3.2-26.944-9.92-51.264-31.68-18.944-16.96-31.658-37.76-35.413-44.16-6.251-10.794 6.827-12.33 18.731-34.858 2.133-4.48 1.045-8-.534-11.179-1.6-3.2-14.336-34.56-19.669-47.061-5.12-12.459-10.389-10.88-14.336-10.88-13.008 0-21.269-.896-29.184 7.338-34.432 37.846-25.749 76.886 3.712 118.4 57.899 75.776 88.747 89.728 145.152 109.099 15.232 4.843 29.12 4.16 40.107 2.581 12.245-1.941 37.696-15.381 43.008-30.421 5.44-15.04 5.797-26.096 4.197-28.976-1.579-2.88-6.309-4.304-12.709-7.184z" fill="#FAFAFA"/></g><defs><linearGradient id="paint0_linear" x1="257.416" y1="41.933" x2="257.416" y2="464.021" gradientUnits="userSpaceOnUse"><stop stop-color="#53EC67"/><stop offset="1" stop-color="#39CA3C"/></linearGradient><clipPath id="clip0"><path fill="#fff" d="M0 0h512v512H0z"/></clipPath></defs></svg>