<svg width="512" height="512" fill="none" xmlns="http://www.w3.org/2000/svg"><path d="M471 215c0-57.429-22.364-111.42-62.972-152.028C367.42 22.364 313.429 0 256 0c-57.429 0-111.42 22.364-152.028 62.972C63.364 103.58 41 157.571 41 215c0 57.429 22.364 111.42 62.972 152.028 15.701 15.701 33.409 28.66 52.536 38.668C133.718 430.396 121 462.598 121 497v15h270v-15c0-34.401-12.718-66.604-35.508-91.303 19.127-10.008 36.835-22.968 52.536-38.668C448.636 326.42 471 272.429 471 215zM359.948 482H152.052c3.477-24.569 15.466-46.908 34.225-63.519C208.425 426.049 231.907 430 256 430c24.093 0 47.575-3.951 69.723-11.519 18.759 16.612 30.748 38.95 34.225 63.519zM256 400c-102.009 0-185-82.99-185-185S153.991 30 256 30s185 82.99 185 185-82.991 185-185 185z" fill="#000"/><path d="M346 145c11.046 0 20-8.954 20-20s-8.954-20-20-20-20 8.954-20 20 8.954 20 20 20z" fill="#000"/><path fill-rule="evenodd" clip-rule="evenodd" d="M336 219.5c0 44.459-36.041 80.5-80.5 80.5S175 263.959 175 219.5c0-23.191 9.807-44.091 25.499-58.781l-8.48-11.223C172.965 166.785 161 191.745 161 219.5c0 52.191 42.309 94.5 94.5 94.5s94.5-42.309 94.5-94.5-42.309-94.5-94.5-94.5c-17.017 0-32.984 4.498-46.776 12.37l8.295 11.406C228.451 142.542 241.562 139 255.5 139c44.459 0 80.5 36.041 80.5 80.5z" fill="#000"/></svg>