<svg width="93" height="93" fill="none" xmlns="http://www.w3.org/2000/svg"><circle cx="46.5" cy="46.5" r="46.5" fill="#C7342A"/><path d="M50.35 41.4v14.05c0 5.233-1.15 8.933-3.45 11.1-2.167 1.933-5.117 2.9-8.85 2.9-3.367 0-6.05-.667-8.05-2l1.1-3.4c1.967 1.3 4.333 1.95 7.1 1.95 2.4 0 4.3-.683 5.7-2.05 1.4-1.367 2.1-3.517 2.1-6.45v-2.65h-.1c-.7 1.2-1.717 2.183-3.05 2.95-1.3.733-2.85 1.1-4.65 1.1-3 0-5.467-1.117-7.4-3.35-1.933-2.267-2.9-5.1-2.9-8.5 0-3.9 1.083-7 3.25-9.3 2.167-2.333 4.733-3.5 7.7-3.5 3.533 0 6.05 1.4 7.55 4.2h.1l.15-3.65h3.9c-.133 1.5-.2 3.7-.2 6.6zm-4.4 7.25V44.3c0-.8-.083-1.45-.25-1.95-.433-1.367-1.183-2.483-2.25-3.35-1.033-.9-2.333-1.35-3.9-1.35-2.133 0-3.867.833-5.2 2.5-1.333 1.667-2 3.9-2 6.7 0 2.467.617 4.533 1.85 6.2 1.267 1.667 3.033 2.5 5.3 2.5 1.4 0 2.65-.4 3.75-1.2 1.133-.833 1.917-1.95 2.35-3.35.233-.667.35-1.45.35-2.35zM57.58 59V23.5h4.4V59h-4.4z" fill="#fff"/></svg>