<svg width="421" height="335" fill="none" xmlns="http://www.w3.org/2000/svg"><path d="M199.975 44.733H65.491c-14.06 0-21.638 15.656-21.638 30.382v74.868a8.772 8.772 0 008.772 8.772h231.392a8.772 8.772 0 007.894-12.561c-32.224-67.324-63.16-101.46-91.936-101.46zm-50.871 96.48H61.396V75.116c0-6.42 2.745-12.192 4.095-12.84h83.613v78.937zm17.542 0V62.276h33.329c19.015 0 44.205 28.566 69.929 78.937H166.646z" fill="#9F41FF"/><path d="M412.229 264.005h-52.625v-47.231C359.604 92.053 253.477.88 208.377.88H42.608C15.92.88 0 25.324 0 66.275v163.436c0 18.113 0 51.836 38.706 51.836h59.098c7.301 35.589 42.071 58.52 77.659 51.218 25.877-5.309 46.068-25.582 51.272-51.481.422.122.853.21 1.289.263h184.205a8.771 8.771 0 000-17.542zM162.26 316.63c-26.642 0-48.24-21.598-48.24-48.24 0-26.642 21.598-48.24 48.24-48.24 26.642 0 48.24 21.598 48.24 48.24-.034 26.628-21.612 48.206-48.24 48.24zm179.802-52.625H228.041c-.079 0-.14 0-.219.043-2.358-36.209-33.624-63.651-69.834-61.293-32.905 2.143-59.125 28.345-61.29 61.25H38.706c-15.902 0-21.165-4.956-21.165-34.294V66.275c0-11.226 1.807-47.853 25.05-47.853H208.36c32.329 0 133.702 82.305 133.702 198.352v47.231z" fill="#9F41FF"/></svg>