<?xml version="1.0" standalone="no"?>
<!DOCTYPE svg PUBLIC "-//W3C//DTD SVG 20010904//EN"
 "http://www.w3.org/TR/2001/REC-SVG-20010904/DTD/svg10.dtd">
<svg version="1.0" xmlns="http://www.w3.org/2000/svg"
 width="200.000000pt" height="200.000000pt" viewBox="0 0 200.000000 200.000000"
 preserveAspectRatio="xMidYMid meet">

<g transform="translate(0.000000,200.000000) scale(0.100000,-0.100000)"
fill="#000000" stroke="none">
<path d="M873 1231 c-23 -17 -50 -43 -60 -58 -45 -71 -34 -67 -266 -74 -117
-4 -218 -4 -226 -1 -19 7 -31 -17 -31 -68 0 -55 -7 -66 -43 -75 -29 -8 -73
-54 -89 -95 -6 -14 -15 -35 -21 -47 -13 -28 -3 -53 22 -53 25 0 47 33 56 83 6
28 19 48 54 77 42 37 51 40 105 40 104 0 170 -62 173 -163 1 -32 3 -60 5 -62
6 -7 674 -9 684 -2 6 4 9 18 7 31 -3 14 3 45 12 70 30 79 99 123 180 113 79
-8 145 -70 145 -135 0 -16 6 -34 13 -40 7 -6 57 -12 111 -13 85 -2 100 0 112
15 20 28 -25 108 -108 190 -62 60 -73 67 -99 62 -19 -3 -56 3 -102 19 -40 13
-91 29 -114 35 -27 7 -52 23 -73 48 -90 106 -116 118 -290 128 l-115 6 -42
-31z m143 -37 c37 -18 82 -80 68 -94 -13 -13 -264 -14 -276 -2 -7 7 5 26 37
61 44 47 52 51 92 51 25 0 60 -7 79 -16z"/>
<path d="M320 903 c-49 -35 -62 -54 -67 -109 -6 -52 -5 -55 34 -93 22 -22 52
-43 66 -46 32 -8 77 8 118 43 26 21 29 30 29 85 -1 44 -6 68 -18 82 -46 54
-116 70 -162 38z m94 -17 c43 -18 66 -51 66 -96 0 -44 -21 -75 -65 -96 -97
-46 -185 88 -110 166 15 16 37 31 49 33 11 2 22 5 24 6 1 0 18 -5 36 -13z"/>
<path d="M360 790 c0 -13 7 -20 20 -20 13 0 20 7 20 20 0 13 -7 20 -20 20 -13
0 -20 -7 -20 -20z"/>
<path d="M1375 895 c-16 -7 -41 -25 -55 -40 -21 -22 -25 -36 -24 -86 1 -68 23
-100 81 -120 48 -15 91 -4 130 33 30 29 33 38 33 89 0 65 -22 97 -85 123 -43
18 -41 18 -80 1z m117 -51 c42 -41 39 -95 -7 -141 -32 -32 -40 -35 -75 -30
-111 15 -133 160 -30 200 29 12 83 -3 112 -29z"/>
<path d="M1394 789 c-3 -6 0 -17 7 -25 18 -17 44 -2 36 20 -7 18 -33 21 -43 5z"/>
</g>
</svg>
