<?xml version="1.0" standalone="no"?>
<!DOCTYPE svg PUBLIC "-//W3C//DTD SVG 20010904//EN"
 "http://www.w3.org/TR/2001/REC-SVG-20010904/DTD/svg10.dtd">
<svg version="1.0" xmlns="http://www.w3.org/2000/svg"
 width="200.000000pt" height="200.000000pt" viewBox="0 0 200.000000 200.000000"
 preserveAspectRatio="xMidYMid meet">

<g transform="translate(0.000000,200.000000) scale(0.100000,-0.100000)"
fill="#000000" stroke="none">
<path d="M658 1349 c-9 -6 -13 -478 -4 -486 6 -6 1037 -4 1046 2 6 4 10 103
10 241 0 198 -2 236 -15 240 -20 8 -1024 11 -1037 3z"/>
<path d="M380 1220 c-63 -4 -122 -11 -131 -14 -17 -8 -69 -113 -98 -201 -15
-43 -16 -68 -7 -177 8 -114 12 -128 28 -128 12 0 18 7 18 21 0 30 33 80 69
107 24 17 44 22 94 22 62 0 66 -2 111 -43 26 -25 46 -52 46 -64 0 -52 8 -53
341 -53 286 0 310 1 315 18 3 9 14 34 24 54 11 20 20 39 20 42 0 3 -143 7
-317 8 l-318 3 -5 205 -5 205 -35 1 c-19 1 -87 -2 -150 -6z m58 -62 c16 -16
16 -139 0 -161 -10 -12 -39 -20 -108 -27 -141 -14 -140 -15 -140 18 0 15 7 40
15 56 8 15 15 36 15 46 0 39 35 64 96 71 95 10 109 10 122 -3z"/>
<path d="M305 816 c-50 -22 -77 -60 -82 -113 -12 -126 136 -189 224 -96 28 29
33 42 33 83 0 56 -32 104 -87 126 -39 17 -50 17 -88 0z"/>
<path d="M1272 792 c-80 -62 -81 -157 -2 -219 52 -41 166 -12 191 48 25 62 8
134 -39 168 -38 27 -117 28 -150 3z"/>
<path d="M1470 801 c0 -5 7 -22 15 -37 8 -16 15 -37 15 -46 0 -35 97 -37 173
-4 30 13 37 21 37 44 0 15 -5 33 -12 40 -14 14 -228 17 -228 3z"/>
</g>
</svg>
