<?xml version="1.0" standalone="no"?>
<!DOCTYPE svg PUBLIC "-//W3C//DTD SVG 20010904//EN"
 "http://www.w3.org/TR/2001/REC-SVG-20010904/DTD/svg10.dtd">
<svg version="1.0" xmlns="http://www.w3.org/2000/svg"
 width="200.000000pt" height="200.000000pt" viewBox="0 0 200.000000 200.000000"
 preserveAspectRatio="xMidYMid meet">

<g transform="translate(0.000000,200.000000) scale(0.100000,-0.100000)"
fill="#000000" stroke="none">
<path d="M1103 1348 c-48 -62 -134 -171 -191 -243 -57 -71 -115 -146 -130
-165 -61 -79 -77 -90 -130 -90 -87 0 -82 -12 -82 200 0 104 -4 191 -9 194 -8
5 -236 -11 -279 -20 -24 -5 -61 -74 -95 -179 -22 -66 -12 -290 13 -290 8 0 16
11 18 25 8 59 85 120 152 120 57 0 121 -51 149 -118 l13 -30 191 -7 c106 -3
237 -5 292 -3 l100 3 23 48 c12 27 20 52 18 56 -3 4 -41 6 -86 5 -106 -5 -109
4 -35 101 32 42 61 78 66 80 8 5 55 -18 192 -96 38 -21 72 -39 77 -39 12 0 30
-26 35 -51 3 -12 9 -27 15 -33 5 -5 10 -18 10 -27 0 -10 7 -25 15 -33 18 -18
87 -12 143 11 27 11 32 18 32 48 0 23 -5 35 -14 35 -7 0 -33 11 -57 24 -88 47
-145 79 -170 97 -15 11 -35 22 -45 26 -31 13 -162 94 -173 107 -7 9 0 25 27
59 20 25 50 64 66 86 17 23 37 41 45 41 8 0 86 -33 173 -72 145 -67 158 -75
158 -99 0 -14 9 -34 20 -44 30 -27 26 -54 -10 -62 -32 -6 -36 -26 -6 -31 20
-4 66 34 66 54 0 7 -10 29 -21 49 l-21 36 34 -3 c41 -2 58 7 58 32 0 46 -19
57 -474 281 -33 16 -65 29 -72 29 -7 0 -52 -50 -101 -112z m-648 -179 c4 -12
4 -50 0 -84 -6 -61 -7 -63 -38 -69 -66 -14 -194 -19 -201 -8 -7 11 37 136 55
158 10 12 48 19 136 22 34 2 43 -2 48 -19z"/>
<path d="M297 829 c-15 -11 -31 -38 -37 -59 -20 -75 30 -140 109 -140 99 0
148 124 76 196 -32 32 -110 34 -148 3z"/>
<path d="M1204 827 c-21 -18 -28 -35 -32 -75 -4 -49 -2 -54 31 -87 29 -29 42
-35 78 -35 47 0 75 17 104 62 21 34 13 79 -22 126 -22 29 -29 32 -78 32 -42 0
-60 -5 -81 -23z"/>
</g>
</svg>
