<?xml version="1.0" standalone="no"?>
<!DOCTYPE svg PUBLIC "-//W3C//DTD SVG 20010904//EN"
 "http://www.w3.org/TR/2001/REC-SVG-20010904/DTD/svg10.dtd">
<svg version="1.0" xmlns="http://www.w3.org/2000/svg"
 width="63.000000pt" height="57.000000pt" viewBox="0 0 63.000000 57.000000"
 preserveAspectRatio="xMidYMid meet">

<g transform="translate(0.000000,57.000000) scale(0.100000,-0.100000)"
fill="#000000" stroke="none">
<path d="M264 475 c-11 -8 -14 -15 -6 -15 17 0 15 -30 -3 -30 -8 0 -15 -5 -15
-11 0 -7 7 -8 18 -4 9 5 28 9 42 10 31 2 34 32 4 51 -17 12 -23 12 -40 -1z"/>
<path d="M240 385 c-24 -18 -48 -31 -52 -29 -4 3 -21 -2 -38 -11 -41 -21 -42
-61 -1 -70 33 -7 46 -20 70 -68 15 -31 19 -32 81 -35 54 -2 69 -7 88 -27 32
-35 83 -34 111 1 12 15 21 33 21 40 0 8 5 14 10 14 17 0 11 20 -7 27 -10 4
-20 10 -23 13 -3 4 -18 14 -35 23 -27 15 -28 16 -7 17 39 0 24 20 -16 20 -34
0 -42 5 -71 45 -40 56 -59 75 -74 74 -7 0 -32 -15 -57 -34z m62 -45 c20 -28
23 -29 40 -13 10 9 21 14 24 10 12 -11 -42 -35 -93 -40 -71 -8 -87 11 -41 47
18 14 36 26 40 26 4 0 17 -13 30 -30z m-21 -80 c22 0 29 -5 29 -19 0 -11 -4
-22 -9 -25 -16 -10 -59 12 -72 35 -10 19 -9 21 6 16 9 -4 30 -7 46 -7z m139 3
c-8 -3 -26 -17 -39 -31 -13 -15 -20 -20 -16 -12 15 29 38 50 54 49 14 0 14 -1
1 -6z m55 -33 c3 -5 -2 -10 -12 -10 -10 0 -29 -3 -43 -7 -22 -6 -24 -5 -11 10
15 19 56 23 66 7z m15 -55 c0 -23 -39 -39 -66 -26 -43 19 -26 37 39 40 18 1
27 -4 27 -14z"/>
<path d="M103 260 c-26 -11 -43 -40 -43 -74 0 -63 89 -90 129 -40 28 36 26 60
-8 95 -31 31 -42 33 -78 19z m70 -41 c14 -23 1 -67 -23 -74 -25 -8 -57 9 -65
36 -15 46 62 79 88 38z"/>
</g>
</svg>
