<?xml version="1.0" standalone="no"?>
<!DOCTYPE svg PUBLIC "-//W3C//DTD SVG 20010904//EN"
 "http://www.w3.org/TR/2001/REC-SVG-20010904/DTD/svg10.dtd">
<svg version="1.0" xmlns="http://www.w3.org/2000/svg"
 width="200.000000pt" height="200.000000pt" viewBox="0 0 200.000000 200.000000"
 preserveAspectRatio="xMidYMid meet">

<g transform="translate(0.000000,200.000000) scale(0.100000,-0.100000)"
fill="#000000" stroke="none">
<path d="M328 1347 c-58 -48 -82 -146 -76 -303 5 -128 33 -222 80 -271 17 -17
27 -36 24 -42 -5 -7 -44 -11 -100 -11 -67 0 -97 -4 -105 -14 -13 -15 -5 -46
13 -46 6 1 156 -1 332 -3 180 -2 329 0 338 5 9 5 16 17 16 26 0 10 11 34 25
54 30 44 85 63 152 53 54 -8 90 -38 107 -90 l14 -40 214 -3 214 -2 42 30 c154
111 178 465 43 624 -9 10 -33 27 -53 37 -35 18 -68 19 -645 19 l-608 0 -27
-23z m442 -96 c6 -12 10 -115 10 -264 0 -197 -3 -247 -14 -256 -9 -8 -55 -11
-137 -9 l-124 3 4 265 c2 180 7 267 15 272 6 4 61 8 123 8 101 0 113 -2 123
-19z m669 5 c8 -9 11 -43 9 -93 l-3 -78 -170 0 -170 0 -3 84 c-2 61 1 87 10
92 7 5 81 9 164 9 118 0 154 -3 163 -14z"/>
<path d="M958 761 c-48 -30 -68 -61 -68 -103 0 -50 12 -71 54 -97 47 -30 76
-26 124 15 37 31 42 40 42 77 -1 45 -23 79 -72 110 -33 21 -45 20 -80 -2z m89
-53 c32 -37 35 -46 19 -76 -36 -70 -139 -49 -139 28 0 63 78 94 120 48z"/>
</g>
</svg>
