<?xml version="1.0" standalone="no"?>
<!DOCTYPE svg PUBLIC "-//W3C//DTD SVG 20010904//EN"
 "http://www.w3.org/TR/2001/REC-SVG-20010904/DTD/svg10.dtd">
<svg version="1.0" xmlns="http://www.w3.org/2000/svg"
 width="200.000000pt" height="200.000000pt" viewBox="0 0 200.000000 200.000000"
 preserveAspectRatio="xMidYMid meet">

<g transform="translate(0.000000,200.000000) scale(0.100000,-0.100000)"
fill="#000000" stroke="none">
<path d="M950 1556 c0 -24 -4 -47 -9 -50 -6 -4 -6 -20 0 -41 6 -19 7 -40 4
-45 -8 -13 -42 -13 -50 0 -10 16 -25 12 -25 -7 0 -10 18 -28 40 -41 31 -18 40
-28 40 -50 0 -34 -10 -49 -35 -53 -14 -3 -24 -18 -33 -49 -22 -76 -20 -75
-125 -80 -67 -4 -100 -10 -114 -21 -10 -9 -26 -19 -35 -22 -22 -8 -23 -25 -2
-48 22 -24 10 -39 -32 -39 -30 0 -34 -3 -34 -25 0 -29 15 -32 67 -10 55 23
187 55 227 55 19 0 38 5 41 10 6 10 -56 16 -131 12 -47 -3 -75 18 -55 42 9 11
63 13 275 12 146 0 268 -5 272 -9 5 -4 3 -16 -2 -25 -9 -14 -27 -17 -100 -17
-49 0 -91 -4 -94 -10 -3 -5 9 -11 25 -13 60 -5 152 -24 224 -48 92 -30 103
-30 99 -1 -2 16 -11 23 -33 25 -45 6 -60 22 -35 39 29 21 25 41 -14 57 -18 8
-37 19 -40 25 -4 7 -42 11 -95 11 -101 0 -106 3 -125 77 -10 37 -17 49 -37 53
-19 5 -25 13 -27 42 -3 34 1 39 37 63 23 14 41 32 41 40 0 17 -16 20 -25 5 -3
-5 -18 -10 -32 -10 -25 0 -25 1 -19 49 4 31 3 52 -4 56 -6 4 -9 23 -8 42 2 22
-2 38 -9 40 -9 3 -13 -9 -13 -41z"/>
<path d="M790 979 c-161 -44 -236 -77 -308 -134 -32 -26 -34 -30 -27 -74 8
-57 43 -152 94 -251 l38 -74 104 -17 c101 -17 151 -30 195 -51 23 -11 55 -8
55 5 -1 4 -1 142 -1 307 l0 300 -57 -1 c-32 0 -74 -5 -93 -10z"/>
<path d="M987 983 c-4 -3 -7 -143 -7 -310 0 -345 -8 -320 90 -282 30 12 102
29 160 38 l105 16 42 80 c49 93 93 217 93 262 0 34 -28 63 -104 108 -103 60
-350 118 -379 88z"/>
</g>
</svg>
